<?xml version="1.0" encoding="UTF-8"?>
<svg version="1.1" viewBox="0 0 1204 1696" width="301" height="424" xmlns="http://www.w3.org/2000/svg">
<path transform="translate(0)" d="m0 0h1204v1696h-1204z" fill="#ABF3DB"/>
<path transform="translate(0)" d="m0 0h1204v1696h-1204zm177 35-8 4-7 5-6 8-8 15-26 56-16 34-9 20-4 7h-39l-13 2-10 5-8 7-7 11-1 8v150l2 11 7 11 8 7 11 5 5 1h18l1 17 11 101 3 27h-33l-10 3-11 7-7 8-4 8-1 4v16l10 74 13 106 11 88 12 97 21 168 14 111 8 62 4 14 4 8 7 7 10 5 12 2h30l13 111 14 123 7 59 4 16 6 10 7 6 11 5 5 1 576 1h125l16-2 12-6 5-4 5-7 4-11 8-64 12-106 14-121 1-10 3-1h49l10-2 11-6 8-9 4-8 3-14 11-87 19-154 13-104 11-91 19-155 14-109v-17l-4-13-5-8-10-7-17-4h-49v-8l5-40 10-85 1-11 1-1h37l10-3 11-8 8-11 3-10 1-11v-127l-1-16-4-11-8-11-9-6-11-3-22-1h-25l-32-68-13-27-14-31-7-11-9-8-11-4z" fill="#0E0D0D"/>
<path transform="translate(245,1334)" d="m0 0h696v10l-9 83-17 153-2 13-1 1-608 1-29-1-2-9-16-138-12-105z" fill="#0E0D0D"/>
<path transform="translate(139,401)" d="m0 0h910l-4 36-11 92-2 15-1 3h-874l-2-3-13-111-3-26z" fill="#0E0D0D"/>
<path transform="translate(93,618)" d="m0 0 1021 1-3 26-10 81-6 45-1 1h-302l-4-4v-2l-4-2v-2h-2v-2h-2l-7-8-12-11-17-13-15-10-20-11-23-10-18-6-19-5-28-4-11-1h-33l-26 3-18 3-24 7-20 8-22 11-19 12-19 14-13 12-20 20-3 1h-281l-2-11-17-136z" fill="#0E0D0D"/>
<path transform="translate(150,1091)" d="m0 0h231l10 12 9 12 6 6v2h2l6 7 8 7 13 11 16 11 17 10 20 9 21 8 22 7 29 6 25 2h15l25-2 31-6 23-7 20-8 18-8 20-11 16-12 10-8 10-9 15-15 14-19 4-5h249l-1 15-14 116-5 40-13 1h-847l-3-2-18-143-3-23z" fill="#0E0D0D"/>
<path transform="translate(586,753)" d="m0 0h13l23 2 17 3 27 9 22 11 11 7 14 11 15 13 10 11 10 13 11 18 8 16 9 27 3 13 3 25v16l-3 28-5 19-6 18-12 23-9 14-8 9-7 9-8 9-8 7-18 14-29 15-13 5-24 7-22 3-10 1h-14l-26-3-19-5-21-7-29-15-14-11-12-11-5-4-9-11-8-9-8-10-15-28-10-32-3-20-1-9v-26l4-29 9-29 14-27 9-13 9-10 8-10 12-11 14-11 10-7 24-13 24-8 23-5z" fill="#0E0D0D"/>
<path transform="translate(196,257)" d="m0 0h750l173 1 1 11-1 59-1031 1-1-1v-70z" fill="#0E0D0D"/>
<path transform="translate(211,106)" d="m0 0h785l8 16 15 32 9 20 4 7v4h-858l2-6 14-29 15-33 5-10z" fill="#0E0D0D"/>
<path transform="translate(836,844)" d="m0 0h250l-4 33-8 64-9 70-1 7-15 1h-206l-1-2 7-24 4-27 1-11v-33l-3-23-7-30-8-23z" fill="#0E0D0D"/>
<path transform="translate(120,843)" d="m0 0 156 1h75l-3 11-8 26-5 25-2 20v20l2 26 3 19 7 25v2l-21 1h-181l-2-10-15-119-5-39z" fill="#0E0D0D"/>
<path transform="translate(589,846)" d="m0 0h13l16 3 15 5 13 7 10 9 12 12 10 16 5 11 5 21v19l-1 11-6 18-9 16-6 8-15 15-17 10-19 6-10 2h-22l-15-3-16-6-17-11-9-8-7-8-6-7-7-14-6-20-1-7v-20l2-12 5-15 8-15 11-14 8-7 14-10 16-7 15-4z" fill="#ABF3DB"/>
<path transform="translate(592,918)" d="m0 0 8 1 9 6 4 5 3 8-1 9-3 6-9 8-2 1h-13l-8-4-6-8-2-4v-9l4-10 6-5z" fill="#0E0D0D"/>
</svg>
